<svg id="Слой_1" data-name="Слой 1" xmlns="http://www.w3.org/2000/svg" viewBox="0 0 339.14 370.78"><defs><style>.cls-1{fill:#fff;}</style></defs><title>Rg</title><path class="cls-1" d="M150,246.39c4.43,7.44,8.67,14.88,13.22,22.12a509.46,509.46,0,0,0,35.6,50.33c8.28,10.2,16.29,20.69,26.46,29.2,7.44,6.22,15.56,11.14,25.11,13.33a33.78,33.78,0,0,0,6.18.75c1.68.06,2.45.62,2.39,2.37a64.36,64.36,0,0,0,0,7.48c.18,2.11-.73,2.94-2.57,3.55a60.75,60.75,0,0,1-21.21,2.61A76.88,76.88,0,0,1,195.29,366c-8.71-5.58-15.3-13.28-21.59-21.28-17-21.72-31.86-45-46.06-68.6-4.58-7.63-9-15.36-13.41-23.1a3.49,3.49,0,0,0-3.43-1.91c-9.57-.17-19.15-.37-28.72-.67-1.84-.06-1.77.91-1.77,2.18q0,18.75,0,37.49c0,11.58-.09,23.17,0,34.75.08,7.07.45,14.15,2.58,21,1.84,5.91,5.28,10.21,11.71,11.25,7.88,1.27,15.78,2.46,23.69,3.51,2.13.28,2.9,1,2.77,3.15-.15,2.57,0,5.16,0,7.73.07,3-.2,3.31-3.19,3.23-14.41-.39-28.81-1-43.22-1.08-17.32-.05-34.65.39-52,.66-2.91,0-5.82.24-8.72.47-2.2.17-3-.7-2.87-2.9.15-2.82.1-5.66,0-8.49-.07-1.79.69-2.51,2.39-2.82q8.84-1.62,17.63-3.43C37.3,355.86,41.54,352,43,346a79.93,79.93,0,0,0,2.52-18q.25-91.6,0-183.21a91.63,91.63,0,0,0-1.77-15.08c-1.5-8.71-7.18-13.12-15.61-14.5-5-.81-10-1.63-15-2.66a3.18,3.18,0,0,1-1.95-2.3c-.22-3.23,0-6.49-.07-9.73,0-1.88.9-2.37,2.67-2.36,22.15,0,44.31.14,66.46,0,16-.09,32-.84,48-.64,16.31.21,32.17,3.31,46.78,10.91,20.69,10.75,32.66,27.75,35.71,51a71.38,71.38,0,0,1-1.27,26.77,83.15,83.15,0,0,1-48.72,56.23C157.35,243.85,153.88,245,150,246.39ZM80.32,174q0,26.25,0,52.49c0,1.34-.1,2.4,1.77,2.58,14.63,1.36,29.29,2.25,43.86-.11,15.53-2.52,28.71-9.33,37.79-22.78a55.75,55.75,0,0,0,9.18-26.63,76.45,76.45,0,0,0-1.31-22.36A48,48,0,0,0,163.08,138c-8.93-12-21.66-17.11-35.91-18.79-14.53-1.72-29.11-.6-43.68-.22-2.83.07-3.22,1.14-3.21,3.53C80.35,139.69,80.32,156.85,80.32,174Z" transform="translate(-11.05 -7.39)"/><path class="cls-1" d="M265,87.47c.45,8.32.54,16.67,1.44,24.94,1.22,11.33,5.89,20.62,17.34,25.06a35.62,35.62,0,0,0,21.36,1.23c11.78-2.72,18.47-10.42,20.41-22.16.88-5.3,1-10.73,1.54-16.1.18-2-.64-2.73-2.76-2.69-7.58.15-15.17.11-22.75.07-2.72,0-3.37-.75-3.38-3.47,0-4.33.1-8.67-.05-13-.09-2.52,1-3.48,3.34-3.49,3.08,0,6.16-.08,9.24-.09,11.67,0,23.33,0,35,0,3.83,0,4.48.45,4.43,4.18-.11,9.66.09,19.34-.58,29-.87,12.62-4.6,24.33-13.29,34a46.79,46.79,0,0,1-22,13.65,62.49,62.49,0,0,1-35.49.24c-15.46-4.37-25.71-14.36-31.66-29.12-3.45-8.57-4.68-17.58-4.86-26.65-.28-14.06-.13-28.16.35-42.22a63,63,0,0,1,7.4-28c5.93-11.09,14.85-18.63,26.71-22.28,15.85-4.88,31.57-4.39,46.64,3.21,10.22,5.16,17.19,13.48,22.16,23.61a2.31,2.31,0,0,1-1.25,3.5c-5.43,2.33-10.85,4.66-16.35,6.82a2.81,2.81,0,0,1-2.36-1.07c-1.76-2.52-3.13-5.31-4.94-7.79-5.63-7.69-13.42-10.78-22.84-11.27-16.43-.86-28.16,10.88-30.15,23.33-1.31,8.18-1.7,16.52-2.28,24.8-.27,3.9,0,7.83,0,11.74Z" transform="translate(-11.05 -7.39)"/></svg>